<svg xmlns:dc="http://purl.org/dc/elements/1.1/" xmlns:cc="http://creativecommons.org/ns#" xmlns:rdf="http://www.w3.org/1999/02/22-rdf-syntax-ns#" xmlns:svg="http://www.w3.org/2000/svg" xmlns="http://www.w3.org/2000/svg" viewBox="0 -256 1792 1792" id="svg3037" version="1.1" width="32" height="50" style="vertical-align: middle;">
  <g transform="matrix(1,0,0,-1,68.338983,1217.0847)" id="chevron-down">
    <path d="m 1611,320 q 0,-53 -37,-90 l -75,-75 q -38,-38 -91,-38 -54,0 -90,38 L 832,640 346,155 q -36,-38 -90,-38 -54,0 -90,38 l -75,75 q -38,36 -38,90 0,53 38,91 l 651,651 q 37,37 90,37 52,0 91,-37 l 650,-651 q 38,-38 38,-91 z" id="path3041" inkscape:connector-curvature="0" style="fill:currentColor" />
  </g>
</svg>
